<svg width="27" height="27" viewBox="0 0 27 27" fill="none" xmlns="http://www.w3.org/2000/svg">
<path d="M16.0945 6.22857C17.234 6.44881 18.2813 7.00089 19.1022 7.81414C19.9232 8.62739 20.4805 9.66482 20.7028 10.7936M16.0945 1.60571C18.462 1.86625 20.6697 2.9165 22.3551 4.584C24.0405 6.2515 25.1035 8.43715 25.3695 10.7821M24.2028 20.0047V23.4718C24.2041 23.7937 24.1376 24.1123 24.0074 24.4072C23.8772 24.7021 23.6863 24.9669 23.4469 25.1844C23.2075 25.402 22.9248 25.5677 22.617 25.6708C22.3092 25.7739 21.9831 25.8122 21.6595 25.7833C18.0694 25.3968 14.621 24.1816 11.5911 22.2352C8.77227 20.4608 6.38236 18.0933 4.59114 15.3009C2.61944 12.2859 1.39242 8.85319 1.00947 5.28089C0.980315 4.96129 1.01866 4.63919 1.12205 4.33508C1.22545 4.03097 1.39164 3.75152 1.61003 3.51452C1.82842 3.27752 2.09424 3.08816 2.39056 2.9585C2.68688 2.82885 3.0072 2.76173 3.33114 2.76143H6.83114C7.39733 2.75591 7.94623 2.95452 8.37552 3.32025C8.80482 3.68598 9.08523 4.19387 9.16447 4.74926C9.3122 5.85882 9.58616 6.94827 9.98114 7.99682C10.1381 8.41047 10.1721 8.86004 10.079 9.29223C9.98598 9.72443 9.76981 10.1211 9.45614 10.4354L7.97447 11.9031C9.63528 14.7965 12.0537 17.1922 14.9745 18.8374L16.4561 17.3697C16.7733 17.0589 17.1738 16.8448 17.6101 16.7526C18.0464 16.6604 18.5002 16.6941 18.9178 16.8496C19.9763 17.2409 21.0761 17.5123 22.1961 17.6586C22.7629 17.7378 23.2804 18.0206 23.6504 18.4531C24.0204 18.8857 24.217 19.4379 24.2028 20.0047Z" stroke="white" stroke-width="2" stroke-linecap="round" stroke-linejoin="round"/>
</svg>
